<?xml version="1.0" standalone="no"?>
<!DOCTYPE svg PUBLIC "-//W3C//DTD SVG 20010904//EN"
 "http://www.w3.org/TR/2001/REC-SVG-20010904/DTD/svg10.dtd">
<svg version="1.0" xmlns="http://www.w3.org/2000/svg"
 width="700.000000pt" height="700.000000pt" viewBox="0 0 700.000000 700.000000"
 preserveAspectRatio="xMidYMid meet">
<metadata>
Created by potrace 1.14, written by Peter Selinger 2001-2017
</metadata>
<g transform="translate(0.000000,700.000000) scale(0.100000,-0.100000)"
fill="#000000" stroke="none">
<path d="M2708 6985 c-2 -2 -43 -6 -93 -9 -213 -16 -430 -60 -655 -131 -154
-49 -455 -186 -542 -247 -14 -10 -28 -18 -31 -18 -3 0 -29 -16 -59 -35 -282
-185 -496 -379 -712 -645 -129 -160 -292 -437 -381 -649 -89 -212 -161 -474
-191 -690 -3 -25 -8 -57 -10 -71 -23 -143 -22 -510 2 -675 2 -16 6 -46 8 -65
3 -19 9 -60 15 -90 6 -30 12 -66 15 -80 6 -39 45 -188 68 -260 128 -415 353
-800 650 -1112 41 -43 46 -59 23 -78 -31 -25 -109 -145 -159 -243 -101 -197
-140 -360 -140 -587 0 -273 68 -499 222 -734 61 -93 237 -268 334 -334 129
-87 326 -175 438 -195 14 -3 36 -8 50 -11 70 -16 117 -19 250 -19 162 0 266
16 411 63 354 116 664 411 794 757 56 147 85 293 89 451 l2 57 84 11 c146 19
163 22 260 43 52 12 97 21 101 21 4 0 19 -30 34 -68 162 -407 523 -776 925
-947 114 -48 162 -65 240 -86 53 -15 46 -13 90 -22 106 -22 146 -27 240 -36
119 -10 349 -2 410 14 8 2 33 6 54 10 67 10 197 45 286 77 315 115 605 330
809 602 39 52 71 97 71 100 0 3 12 22 26 43 65 96 163 321 199 463 58 225 76
536 41 716 -3 12 -7 39 -10 59 -33 206 -141 470 -271 665 -83 123 -117 164
-239 284 -148 146 -282 240 -472 332 -93 44 -287 114 -319 114 -15 0 -16 7
-11 58 27 246 27 544 0 735 -75 533 -274 997 -603 1407 -96 119 -288 314 -407
412 -87 72 -276 208 -287 208 -3 0 -27 14 -52 31 -71 48 -298 161 -415 207
-136 53 -397 129 -503 147 -15 3 -53 9 -85 15 -125 21 -265 32 -439 35 -84 1
-154 1 -155 0z"/>
</g>
</svg>
